<?xml version="1.0" encoding="utf-8"?>
<!-- Svg Vector Icons : http://www.onlinewebfonts.com/icon -->
<!DOCTYPE svg PUBLIC "-//W3C//DTD SVG 1.1//EN" "http://www.w3.org/Graphics/SVG/1.1/DTD/svg11.dtd">
<svg version="1.1" xmlns="http://www.w3.org/2000/svg" xmlns:xlink="http://www.w3.org/1999/xlink" x="0px" y="0px" viewBox="0 0 1000 1000" enable-background="new 0 0 1000 1000" xml:space="preserve">
<metadata> Svg Vector Icons : http://www.onlinewebfonts.com/icon </metadata>
<g><g transform="translate(0.000000,512.000000) scale(0.100000,-0.100000)"><path d="M4530.1,5007.9C3375.4,4889,2341.7,4400,1530.4,3588.6C751.6,2809.9,287.5,1860.5,124.4,723.1c-32.6-226.3-32.6-982,0-1208.3c163-1137.4,629.1-2086.8,1405.9-2865.5c776.8-776.8,1730-1244.8,2865.5-1405.9c226.3-32.6,982-32.6,1208.3,0c939.8,134.3,1779.9,491,2474.2,1053c987.8,797.9,1611.1,1916.1,1797.2,3218.4c32.6,226.3,32.6,982,0,1208.3c-161.1,1135.5-629.1,2088.7-1405.9,2865.5c-759.5,759.5-1687.8,1223.7-2779.2,1392.5C5448.8,5017.5,4775.6,5034.8,4530.1,5007.9z M5642.5,4676.1C6638,4528.5,7552.8,4070,8252.9,3368.1c725-728.8,1170-1636,1313.8-2673.7c15.4-101.7,26.9-354.8,26.9-575.4c0-414.3-21.1-613.8-97.8-978.2c-107.4-506.4-368.3-1122-656-1553.6c-749.9-1123.9-1912.2-1849-3264.4-2035c-235.9-34.5-914.9-34.5-1150.8,0c-725,99.7-1390.5,349.1-1975.5,740.4C1344.3-2969,619.3-1800.9,431.3-456.4c-32.6,237.8-32.6,934.1,1.9,1160.4c220.6,1509.5,1076,2752.3,2380.2,3462c558.1,303,1083.7,458.4,1841.3,544.7C4794.8,4726,5458.4,4703,5642.5,4676.1z"/><path d="M5249.3,2129c-15.3-38.4-1016.5-3419.8-1047.2-3538.7c-11.5-44.1-11.5-44.1,237.8-44.1c222.5,0,251.3,3.8,260.9,34.5C4894.5-771,5748,2134.8,5748,2150.1c0,13.4-80.6,21.1-239.7,21.1C5276.2,2171.2,5266.6,2169.3,5249.3,2129z"/><path d="M2612.1,840.1l-1170-542.8l-3.8-218.7l-5.8-218.6L2614-686.6C3262.3-987.7,3803.2-1237,3812.8-1239c11.5-5.8,17.3,94,13.4,257l-5.7,264.7l-895.7,393.2c-494.8,214.8-897.6,397-897.6,402.8c0,5.8,395.1,184.1,878.4,393.2c481.4,211,888,391.3,901.5,400.9c15.4,13.4,23,90.2,23,264.7c0,186-5.8,247.4-23,247.4C3793.6,1384.9,3256.5,1139.4,2612.1,840.1z"/><path d="M6054.9,1127.8v-257l911-389.4C7466.5,266.7,7877,84.5,7877,78.7c0-7.7-410.5-188-911.1-402.8l-911-391.3v-262.8v-264.7l63.3,28.8c32.6,17.3,565.8,260.8,1183.4,544.7l1122,514v234v234l-1170,535.1c-642.5,295.4-1175.7,537-1183.4,537C6060.6,1384.9,6054.9,1269.8,6054.9,1127.8z"/></g></g>
</svg>